<?xml version="1.0" encoding="UTF-8" standalone="no"?>
<svg
   version="1"
   viewBox="0 0 64 64"
   id="svg13"
   sodipodi:docname="syncer.svg"
   inkscape:version="1.4.4 (dcaf3e7d9e, 2026-05-05)"
   xmlns:inkscape="http://www.inkscape.org/namespaces/inkscape"
   xmlns:sodipodi="http://sodipodi.sourceforge.net/DTD/sodipodi-0.dtd"
   xmlns:xlink="http://www.w3.org/1999/xlink"
   xmlns="http://www.w3.org/2000/svg"
   xmlns:svg="http://www.w3.org/2000/svg">
  <defs
     id="defs13">
    <linearGradient
       id="linearGradient17"
       inkscape:collect="always">
      <stop
         style="stop-color:#11838e;stop-opacity:1;"
         offset="0"
         id="stop17" />
      <stop
         style="stop-color:#2796a3;stop-opacity:1;"
         offset="1"
         id="stop18" />
    </linearGradient>
    <linearGradient
       id="linearGradient15"
       inkscape:collect="always">
      <stop
         style="stop-color:#60c4c2;stop-opacity:1;"
         offset="0"
         id="stop15" />
      <stop
         style="stop-color:#79d1d2;stop-opacity:1;"
         offset="1"
         id="stop16" />
    </linearGradient>
    <linearGradient
       id="linearGradient13"
       inkscape:collect="always">
      <stop
         style="stop-color:#333e42;stop-opacity:1;"
         offset="0"
         id="stop13" />
      <stop
         style="stop-color:#464f56;stop-opacity:1;"
         offset="1"
         id="stop14" />
    </linearGradient>
    <linearGradient
       inkscape:collect="always"
       xlink:href="#linearGradient13"
       id="linearGradient14"
       x1="43"
       y1="49"
       x2="43"
       y2="15"
       gradientUnits="userSpaceOnUse" />
    <linearGradient
       inkscape:collect="always"
       xlink:href="#linearGradient15"
       id="linearGradient16"
       x1="26.5"
       y1="54.5"
       x2="26.5"
       y2="9.5"
       gradientUnits="userSpaceOnUse" />
    <linearGradient
       inkscape:collect="always"
       xlink:href="#linearGradient17"
       id="linearGradient18"
       x1="29.5"
       y1="57.5"
       x2="29.5"
       y2="6.5"
       gradientUnits="userSpaceOnUse" />
  </defs>
  <sodipodi:namedview
     id="namedview13"
     pagecolor="#ffffff"
     bordercolor="#666666"
     borderopacity="1.0"
     inkscape:showpageshadow="2"
     inkscape:pageopacity="0.0"
     inkscape:pagecheckerboard="0"
     inkscape:deskcolor="#d1d1d1"
     inkscape:zoom="16"
     inkscape:cx="31.9375"
     inkscape:cy="28.71875"
     inkscape:window-width="2048"
     inkscape:window-height="1209"
     inkscape:window-x="0"
     inkscape:window-y="0"
     inkscape:window-maximized="1"
     inkscape:current-layer="svg13" />
  <path
     d="M 20.800781 5 C 11.493582 5 4 12.493582 4 21.800781 L 4 44.199219 C 4 53.506418 11.493582 61 20.800781 61 L 30 61 L 43.199219 61 C 52.506418 61 60 53.506418 60 44.199219 L 60 21.800781 C 60 12.493582 52.506418 5 43.199219 5 L 30 5 L 20.800781 5 z "
     style="opacity:.2"
     id="path1"
     inkscape:label="bg-bottom-border" />
  <path
     d="M 43.199219,4 C 52.506418,4 60,11.493582 60,20.800781 V 43.199219 C 60,52.506418 52.506418,60 43.199219,60 H 26 V 4 Z"
     style="fill:url(#linearGradient14)"
     id="path2"
     inkscape:label="bg" />
  <path
     id="path3"
     style="fill:url(#linearGradient18)"
     d="M 20.800781 4 C 11.493582 4 4 11.493582 4 20.800781 L 4 43.199219 C 4 52.506418 11.493582 60 20.800781 60 L 28 60 L 28 56 C 28 51.461789 30.988107 47.511932 35 45.472656 L 35 50 L 41 44.857422 L 41 50 L 55 38 L 41 26 L 41 31.142578 L 35 26 L 35 30.527344 C 30.988107 28.488068 28 24.538211 28 20 L 28 4 L 20.800781 4 z "
     inkscape:label="back-arrow" />
  <path
     id="path11-9-2"
     style="opacity:0.2;fill-rule:evenodd;stroke-width:0.421059"
     d="M 55 38 L 41 50 L 41 51 L 55 39 L 55 38 z M 41 44.857422 L 35 50 L 35 51 L 41 45.857422 L 41 44.857422 z M 35 45.5 A 12.5 12.5 0 0 0 28 56.724609 L 28.041016 56.724609 A 12.5 12.5 0 0 1 35 46.5 L 35 45.5 z "
     inkscape:label="back-arrow-bottom-border" />
  <path
     id="path11-9-2-8-7"
     style="opacity:0.1;fill:#ffffff;fill-opacity:1;fill-rule:evenodd;stroke-width:0.421059"
     d="M 28 19.400391 A 12.5 12.5 0 0 0 35 30.625 L 35 29.625 A 12.5 12.5 0 0 1 28.041016 19.400391 L 28 19.400391 z M 35 25 L 35 26 L 41 31.142578 L 41 30.142578 L 35 25 z M 41 25 L 41 26 L 55 38 L 55 37 L 41 25 z "
     inkscape:label="back-arrow-top-border" />
  <path
     id="path6"
     style="fill:url(#linearGradient16)"
     d="M 20.800781,4 C 11.493582,4 4,11.493582 4,20.800781 V 43.199219 C 4,52.506418 11.493582,60 20.800781,60 H 23 v -4 c 0,-6.627417 5.372583,-12 12,-12 h 0.800781 v 4 L 47.6,38 35.800781,28 v 4 H 35 C 28.372583,32 23,26.627417 23,20 V 4 Z m 21,24 v 3.830078 L 49,38 41.800781,44.169922 V 48 L 53.6,38 Z"
     inkscape:label="front-arrow"
     sodipodi:nodetypes="sssscsscccccsscsccccccc" />
  <path
     id="path11"
     style="opacity:0.2;fill-rule:evenodd;stroke-width:0.421059"
     d="M 47.599609 38 L 35.800781 48 L 35.800781 49 L 47.599609 38.900391 L 47.599609 38 z M 53.599609 38 L 41.800781 48 L 41.800781 49 L 53.599609 38.900391 L 53.599609 38 z M 35 44 A 12 12 0 0 0 23 56 L 23.041016 56 A 12 12 0 0 1 35 45 L 35.800781 45 L 35.800781 44 L 35 44 z "
     inkscape:label="front-arrow-bottom-border" />
  <path
     id="path11-3"
     style="opacity:0.1;fill:#ffffff;fill-opacity:1;fill-rule:evenodd;stroke-width:0.421059"
     d="M 23 20 A 12 12 0 0 0 35 32 L 35.800781 32 L 35.800781 31 L 35 31 A 12 12 0 0 1 23.041016 20 L 23 20 z M 35.800781 27 L 35.800781 28 L 47.599609 38 L 47.599609 37.099609 L 35.800781 27 z M 41.800781 27 L 41.800781 28 L 53.599609 38 L 53.599609 37.099609 L 41.800781 27 z "
     inkscape:label="front-arrow-top-border" />
  <path
     d="M 20.800781 4 C 11.493582 4 4 11.493582 4 20.800781 L 4 21.800781 C 4 12.493582 11.493582 5 20.800781 5 L 30 5 L 43.199219 5 C 52.506418 5 60 12.493582 60 21.800781 L 60 20.800781 C 60 11.493582 52.506418 4 43.199219 4 L 30 4 L 20.800781 4 z "
     style="fill:#fff;opacity:.1"
     id="path7"
     inkscape:label="bg-top-border" />
</svg>
