<svg version="1" viewBox="0 0 64 64" xmlns="http://www.w3.org/2000/svg">
 <path d="M 20.800781 5 C 11.493582 5 4 12.493582 4 21.800781 L 4 44.199219 C 4 53.506418 11.493582 61 20.800781 61 L 30 61 L 43.199219 61 C 52.506418 61 60 53.506418 60 44.199219 L 60 21.800781 C 60 12.493582 52.506418 5 43.199219 5 L 30 5 L 20.800781 5 z " style="opacity:.2"/>
 <path d="M 43.199219,4 C 52.506418,4 60,11.493582 60,20.800781 V 43.199219 C 60,52.506418 52.506418,60 43.199219,60 H 26 V 4 Z" style="fill:#4f4f4f"/>
 <path d="M 20.800781,4 C 11.493582,4 4,11.493582 4,20.800781 V 43.199219 C 4,52.506418 11.493582,60 20.800781,60 H 28 v -4 c 0,-6.627417 6.372583,-12 13,-12 v 6 L 55,38 41,26 v 6 C 34.372583,32 28,26.627417 28,20 V 4 Z" style="fill:#107f61"/>
 <path d="M 40,32 A 12,12 0 0 1 28,20 12,12 0 0 1 28.0332,19.5 12,12 0 0 0 40,31 Z" style="fill-rule:evenodd;fill:#fff;opacity:.1;stroke-width:1.86254"/>
 <path d="M 40,44 A 12,12 0 0 0 28,56 12,12 0 0 0 28.0332,56.5 12,12 0 0 1 40,45 Z" style="fill-rule:evenodd;opacity:.2;stroke-width:1.86254"/>
 <path d="M 20.800781,4 C 11.493582,4 4,11.493582 4,20.800781 V 43.199219 C 4,52.506418 11.493582,60 20.800781,60 H 23 v -4 c 0,-6.627417 5.372583,-12 12,-12 v 6 L 49,38 35,26 v 6 C 28.372583,32 23,26.627417 23,20 V 4 Z" style="fill:#1bd9a5"/>
 <path d="M 20.800781 4 C 11.493582 4 4 11.493582 4 20.800781 L 4 21.800781 C 4 12.493582 11.493582 5 20.800781 5 L 30 5 L 43.199219 5 C 52.506418 5 60 12.493582 60 21.800781 L 60 20.800781 C 60 11.493582 52.506418 4 43.199219 4 L 30 4 L 20.800781 4 z " style="fill:#fff;opacity:.1"/>
 <path d="m41 25 14 12v1l-14-12z" style="fill-rule:evenodd;fill:#fff;opacity:.1;stroke-width:1.31874"/>
 <path d="m35 25 14 12v1l-14-12z" style="fill-rule:evenodd;fill:#fff;opacity:.1;stroke-width:1.31874"/>
 <path d="m41 50 14-12v1l-14 12z" style="fill-rule:evenodd;opacity:.2;stroke-width:.421059"/>
 <path d="m35 50 14-12v1l-14 12z" style="fill-rule:evenodd;opacity:.2;stroke-width:.421059"/>
 <path d="M 35,44 A 12,12 0 0 0 23,56 12,12 0 0 0 23.0332,56.5 12,12 0 0 1 35,45 Z" style="fill-rule:evenodd;opacity:.2;stroke-width:1.86254"/>
 <path d="M 35,32 A 12,12 0 0 1 23,20 12,12 0 0 1 23.0332,19.5 12,12 0 0 0 35,31 Z" style="fill-rule:evenodd;fill:#fff;opacity:.1;stroke-width:1.86254"/>
</svg>
